<?xml version="1.0" encoding="UTF-8"?>
<svg xmlns="http://www.w3.org/2000/svg" xmlns:xlink="http://www.w3.org/1999/xlink" width="375pt" height="374.999991pt" viewBox="0 0 375 374.999991" version="1.2">
<defs>
<clipPath id="clip1">
  <path d="M 159 206 L 169 206 L 169 226 L 159 226 Z M 159 206 "/>
</clipPath>
<clipPath id="clip2">
  <path d="M 113.015625 158.492188 L 257.207031 153.050781 L 262.648438 297.242188 L 118.457031 302.683594 Z M 113.015625 158.492188 "/>
</clipPath>
<clipPath id="clip3">
  <path d="M 113.015625 158.492188 L 257.207031 153.050781 L 262.648438 297.242188 L 118.457031 302.683594 Z M 113.015625 158.492188 "/>
</clipPath>
<clipPath id="clip4">
  <path d="M 207 230 L 217 230 L 217 250 L 207 250 Z M 207 230 "/>
</clipPath>
<clipPath id="clip5">
  <path d="M 113.015625 158.492188 L 257.207031 153.050781 L 262.648438 297.242188 L 118.457031 302.683594 Z M 113.015625 158.492188 "/>
</clipPath>
<clipPath id="clip6">
  <path d="M 113.015625 158.492188 L 257.207031 153.050781 L 262.648438 297.242188 L 118.457031 302.683594 Z M 113.015625 158.492188 "/>
</clipPath>
<clipPath id="clip7">
  <path d="M 130 170 L 246 170 L 246 286 L 130 286 Z M 130 170 "/>
</clipPath>
<clipPath id="clip8">
  <path d="M 113.015625 158.492188 L 257.207031 153.050781 L 262.648438 297.242188 L 118.457031 302.683594 Z M 113.015625 158.492188 "/>
</clipPath>
<clipPath id="clip9">
  <path d="M 113.015625 158.492188 L 257.207031 153.050781 L 262.648438 297.242188 L 118.457031 302.683594 Z M 113.015625 158.492188 "/>
</clipPath>
</defs>
<g id="surface1">
<path style=" stroke:none;fill-rule:nonzero;fill:rgb(11.369324%,26.269531%,30.589294%);fill-opacity:1;" d="M 187.132812 148.464844 C 177.597656 148.464844 169.863281 140.851562 169.863281 131.449219 C 169.863281 122.050781 177.597656 114.425781 187.132812 114.425781 C 196.664062 114.425781 204.402344 122.050781 204.402344 131.449219 C 204.402344 140.851562 196.664062 148.464844 187.132812 148.464844 Z M 314.710938 208.082031 L 197.402344 90.785156 C 191.734375 85.109375 182.527344 85.109375 176.859375 90.785156 L 59.554688 208.082031 C 53.886719 213.757812 53.886719 222.957031 59.558594 228.632812 L 176.863281 345.929688 C 182.53125 351.605469 191.738281 351.605469 197.40625 345.929688 L 314.710938 228.632812 C 320.382812 222.957031 320.382812 213.757812 314.710938 208.082031 "/>
<path style=" stroke:none;fill-rule:nonzero;fill:rgb(59.21936%,4.708862%,6.269836%);fill-opacity:1;" d="M 187.132812 143.667969 C 180.59375 143.667969 175.285156 138.359375 175.285156 131.820312 C 175.285156 125.28125 180.59375 119.972656 187.132812 119.972656 C 193.671875 119.972656 198.980469 125.28125 198.980469 131.820312 C 198.980469 138.359375 193.671875 143.667969 187.132812 143.667969 Z M 307.894531 208.625 L 196.859375 97.597656 C 191.488281 92.226562 182.773438 92.226562 177.40625 97.597656 L 66.375 208.625 C 61 214.003906 61 222.710938 66.371094 228.078125 L 177.402344 339.117188 C 182.769531 344.488281 191.484375 344.488281 196.855469 339.117188 L 307.894531 228.078125 C 313.253906 222.710938 313.253906 214.003906 307.894531 208.625 "/>
<path style=" stroke:none;fill-rule:nonzero;fill:rgb(59.21936%,4.708862%,6.269836%);fill-opacity:1;" d="M 187.132812 143.667969 C 180.59375 143.667969 175.285156 138.359375 175.285156 131.820312 C 175.285156 125.28125 180.59375 119.972656 187.132812 119.972656 C 193.671875 119.972656 198.980469 125.28125 198.980469 131.820312 C 198.980469 138.359375 193.671875 143.667969 187.132812 143.667969 Z M 196.859375 97.597656 C 191.488281 92.226562 182.773438 92.226562 177.40625 97.597656 L 115.289062 159.714844 L 258.972656 159.714844 L 196.859375 97.597656 "/>
<path style=" stroke:none;fill-rule:nonzero;fill:rgb(59.21936%,4.708862%,6.269836%);fill-opacity:1;" d="M 187.132812 143.667969 C 180.59375 143.667969 175.285156 138.359375 175.285156 131.820312 C 175.285156 125.28125 180.59375 119.972656 187.132812 119.972656 C 193.671875 119.972656 198.980469 125.28125 198.980469 131.820312 C 198.980469 138.359375 193.671875 143.667969 187.132812 143.667969 Z M 187.132812 117.640625 C 179.296875 117.640625 172.953125 123.984375 172.953125 131.820312 C 172.953125 139.652344 179.296875 146.007812 187.132812 146.007812 C 194.964844 146.007812 201.3125 139.652344 201.3125 131.820312 C 201.3125 123.984375 194.964844 117.640625 187.132812 117.640625 "/>
<path style=" stroke:none;fill-rule:nonzero;fill:rgb(11.369324%,26.269531%,30.589294%);fill-opacity:1;" d="M 190.800781 107.949219 C 190.765625 107.578125 190.6875 106.609375 190.652344 106.242188 C 189.78125 97.824219 189.210938 89.058594 189.316406 81.582031 C 189.550781 63.972656 191.980469 49.160156 192.121094 38.992188 C 192.175781 34.566406 191.824219 31.007812 190.546875 28.394531 C 189.296875 25.761719 186.9375 24.183594 183.601562 24.085938 C 183.488281 24.078125 183.390625 24.078125 183.292969 24.078125 C 179.519531 24.003906 176.761719 25.914062 175.160156 29.011719 C 173.542969 32.097656 172.882812 36.316406 172.8125 41.234375 C 172.589844 58.164062 179.542969 83.625 183.179688 97.835938 C 183.664062 99.699219 184.140625 101.566406 184.578125 103.433594 C 184.78125 104.339844 185 105.246094 185.179688 106.160156 C 185.476562 107.683594 185.730469 109.226562 185.910156 110.765625 C 186.03125 111.867188 186.121094 112.972656 186.171875 114.082031 C 186.234375 115.554688 186.242188 117.03125 186.199219 118.511719 C 186.15625 120.332031 186.03125 122.164062 185.847656 123.984375 C 185.785156 124.566406 185.652344 125.164062 185.644531 125.738281 C 185.636719 126.195312 186.023438 126.589844 186.480469 126.609375 C 186.957031 126.609375 187.34375 126.230469 187.351562 125.765625 C 187.535156 123.855469 187.667969 121.945312 187.746094 120.023438 C 187.800781 118.484375 187.820312 116.945312 187.792969 115.402344 C 187.757812 114.222656 187.703125 113.046875 187.597656 111.867188 C 187.527344 111.046875 187.441406 110.21875 187.308594 109.402344 C 187.175781 108.484375 186.964844 107.578125 186.859375 106.664062 C 186.789062 106.171875 186.710938 105.6875 186.621094 105.21875 C 186.339844 103.820312 185.980469 102.445312 185.625 101.066406 C 185.328125 99.859375 185.011719 98.652344 184.703125 97.449219 C 183.488281 92.703125 181.921875 86.722656 180.355469 80.238281 C 177.246094 67.273438 174.226562 52.265625 174.378906 41.257812 C 174.4375 36.46875 175.117188 32.445312 176.550781 29.746094 C 178.011719 27.046875 180.027344 25.632812 183.269531 25.648438 C 183.355469 25.648438 183.433594 25.652344 183.523438 25.65625 C 186.464844 25.800781 188.046875 26.90625 189.140625 29.085938 C 190.222656 31.273438 190.617188 34.652344 190.554688 38.96875 C 190.425781 48.929688 187.984375 63.832031 187.746094 81.558594 C 187.640625 89.421875 187.960938 97.835938 189.121094 106.644531 C 189.210938 107.585938 189.246094 108.546875 189.28125 109.488281 C 189.304688 110.40625 189.324219 111.320312 189.316406 112.234375 C 189.304688 113.527344 189.28125 114.832031 189.21875 116.125 C 189.140625 117.78125 189.023438 119.433594 188.882812 121.089844 C 188.742188 122.65625 188.566406 124.214844 188.382812 125.773438 C 188.371094 126.230469 188.75 126.636719 189.226562 126.644531 C 189.683594 126.644531 190.070312 126.273438 190.082031 125.800781 C 191.285156 113.527344 191.144531 112.605469 190.800781 107.949219 "/>
<g clip-path="url(#clip1)" clip-rule="nonzero">
<g clip-path="url(#clip2)" clip-rule="nonzero">
<g clip-path="url(#clip3)" clip-rule="nonzero">
<path style=" stroke:none;fill-rule:nonzero;fill:rgb(93.728638%,93.728638%,85.488892%);fill-opacity:1;" d="M 168.070312 216.035156 C 167.859375 210.480469 165.640625 206.742188 163.15625 206.835938 C 161.078125 206.832031 158.804688 210.324219 159.023438 216.125 C 159.246094 222.097656 161.953125 225.5625 164.105469 225.484375 C 166.589844 225.390625 168.285156 221.753906 168.070312 216.035156 "/>
</g>
</g>
</g>
<g clip-path="url(#clip4)" clip-rule="nonzero">
<g clip-path="url(#clip5)" clip-rule="nonzero">
<g clip-path="url(#clip6)" clip-rule="nonzero">
<path style=" stroke:none;fill-rule:nonzero;fill:rgb(93.728638%,93.728638%,85.488892%);fill-opacity:1;" d="M 211.648438 230.414062 C 209.570312 230.410156 207.292969 233.898438 207.511719 239.703125 C 207.738281 245.671875 210.441406 249.140625 212.601562 249.058594 C 215.085938 248.964844 216.777344 245.332031 216.558594 239.609375 C 216.351562 234.054688 214.132812 230.320312 211.648438 230.414062 "/>
</g>
</g>
</g>
<g clip-path="url(#clip7)" clip-rule="nonzero">
<g clip-path="url(#clip8)" clip-rule="nonzero">
<g clip-path="url(#clip9)" clip-rule="nonzero">
<path style=" stroke:none;fill-rule:nonzero;fill:rgb(93.728638%,93.728638%,85.488892%);fill-opacity:1;" d="M 212.886719 256.6875 C 202.941406 257.0625 195.558594 250.699219 195.164062 240.171875 C 194.78125 230.058594 202.730469 222.949219 211.269531 222.625 C 222.042969 222.21875 228.601562 228.695312 228.996094 239.140625 C 229.363281 248.839844 223.578125 256.285156 212.886719 256.6875 Z M 180.21875 257.921875 L 161.78125 258.617188 L 195.414062 199.3125 L 213.929688 198.613281 Z M 146.667969 216.589844 C 146.285156 206.480469 154.238281 199.371094 162.777344 199.046875 C 173.554688 198.640625 180.109375 205.117188 180.503906 215.566406 C 180.871094 225.269531 175.085938 232.707031 164.394531 233.109375 C 154.445312 233.484375 147.066406 227.125 146.667969 216.589844 Z M 185.667969 170.664062 C 154.078125 171.855469 129.433594 198.433594 130.625 230.027344 C 131.816406 261.621094 158.394531 286.265625 189.984375 285.074219 C 221.585938 283.882812 246.226562 257.304688 245.035156 225.710938 C 243.84375 194.117188 217.269531 169.46875 185.667969 170.664062 "/>
</g>
</g>
</g>
</g>
</svg>
